<mxfile host="app.diagrams.net" modified="2023-09-03T10:39:30.599Z" agent="Mozilla/5.0 (Macintosh; Intel Mac OS X 10.15; rv:109.0) Gecko/20100101 Firefox/116.0" version="21.6.9" etag="d5n73iSwqykc5CR-opQH" type="github">
  <diagram name="第 1 页" id="EycXkX33axmlizSBejxS">
    <mxGraphModel>
      <root>
        <mxCell id="0" />
        <mxCell id="1" parent="0" />
      </root>
    </mxGraphModel>
  </diagram>
</mxfile>
